<?xml version="1.0" encoding="utf-8"?>
<!-- Generator: Adobe Illustrator 16.0.0, SVG Export Plug-In . SVG Version: 6.00 Build 0)  -->
<!DOCTYPE svg PUBLIC "-//W3C//DTD SVG 1.1//EN" "http://www.w3.org/Graphics/SVG/1.1/DTD/svg11.dtd">
<svg version="1.1" id="Layer_1" xmlns="http://www.w3.org/2000/svg" xmlns:xlink="http://www.w3.org/1999/xlink" x="0px" y="0px"
	 width="370.405px" height="181.405px" viewBox="0 0 370.405 181.405" enable-background="new 0 0 370.405 181.405"
	 xml:space="preserve">
<path fill="#FFFFFF" d="M142.573,120.796c-0.751-0.166-1.962-1.166-3.493-2.431c-3.746-3.093-9.406-7.767-17.097-7.767
	c-0.221,0-0.441,0.004-0.694,0.012c-1.667,0-6.258-3.851-12.07-8.728c-3.266-2.74-6.967-5.845-10.995-8.99
	c-8.997-7.024-19.357-7.939-30.326-8.907c-3.212-0.283-6.532-0.577-9.785-1.037c-3.606-0.511-6.396-2.135-8.29-4.828
	c-3.506-4.983-4.033-13.548-1.569-25.454c0.096-0.461,0.167-0.81,0.203-1.025c0.051-0.305,0.123-0.729,0.213-1.248
	c0.726-4.221,2.652-15.434,2.573-20.452c-0.104-6.581-0.234-14.77-12.31-16.604c-0.473-0.071-0.96-0.108-1.447-0.108
	c-4.909,0-9.547,3.555-13.638,6.691c-2.104,1.613-4.091,3.137-5.705,3.793c-0.736,0.3-1.803,0.692-2.934,1.108
	c-5.586,2.057-6.716,2.605-6.713,3.263l0.001,0.349l0.343,0.067c0.121,0.024,12.15,2.394,16.412,2.868
	c3.866,0.43,7.273,5.842,8.555,7.88l0.195,0.309c0.54,0.848,2.143,4.387,0.102,14.313c-0.606,2.946-2.856,6.826-5.705,11.738
	c-2.729,4.707-6.125,10.564-9.104,17.463c-6.418,14.863-1.437,28.442,5.366,36.195c0.278,0.317,0.606,0.713,0.989,1.174
	c3.23,3.894,10.379,12.506,24.82,19.029c0.668,5.369,1.461,14.258,1.289,15.968c-0.152,1.527-0.681,2.897-5.409,2.897
	c-0.909,0-1.967-0.054-3.141-0.159c-2.399-0.215-4.288-0.323-5.613-0.323c-1.527,0-2.312,0.136-2.629,0.472l-0.007-0.002
	c0,0-0.988,1.374-3.23,2.611c-2.146,0.53-2.642,0.89-2.766,1.165c-0.016,0.005-0.03,0.011-0.046,0.016l0.039-0.001
	c-0.03,0.074-0.035,0.142-0.039,0.205c-0.039,0.592,0.743,0.731,1.197,0.792c1.229,0.587,3.179,1.794,3.31,3.595
	c-0.071,0.159-0.104,0.306-0.078,0.43c0.022,0.11,0.14,0.471,0.679,0.471c0.127,0,0.273-0.019,0.45-0.058
	c0.909-0.202,2.273-0.571,4.002-1.039c4.068-1.1,9.641-2.606,14.123-3.237c2.047-0.288,3.693-0.413,5.016-0.513
	c2.198-0.166,3.303-0.249,3.727-0.914c0.198-0.311,0.207-0.694,0.028-1.173c-0.346-0.92-1.221-1.334-2.067-1.733
	c-1.068-0.505-2.077-0.98-2.188-2.432c-0.136-1.767,0.155-6.744,0.39-10.744c0.072-1.248,0.141-2.414,0.192-3.411
	c2.408,0.885,4.607,1.665,6.629,2.349c0.019,0.105,0.037,0.209,0.058,0.313c0.657,3.283,2.017,17.232,1.797,19.424
	c-0.153,1.53-0.683,2.903-5.418,2.903c-0.907,0-1.962-0.053-3.133-0.158c-2.397-0.214-4.284-0.323-5.609-0.323
	c-1.931,0-2.688,0.211-2.796,0.777c-0.01,0.051,0.013,0.097,0.015,0.146c-0.521,0.534-1.458,1.354-2.874,2.111
	c-2.97,0.715-3.007,1.127-3.026,1.437c-0.041,0.632,0.857,0.749,1.289,0.805c0.258,0.034,0.5,0.061,0.749,0.09
	c1.108,0.598,2.48,1.604,2.779,2.995c-0.278,0.358-0.44,0.685-0.39,0.928c0.023,0.11,0.141,0.471,0.68,0.471
	c0.127,0,0.273-0.019,0.449-0.058c0.91-0.202,2.275-0.571,4.004-1.038c4.068-1.101,9.64-2.607,14.121-3.238
	c2.047-0.288,3.693-0.412,5.017-0.513c2.198-0.166,3.302-0.249,3.726-0.914c0.198-0.311,0.207-0.694,0.027-1.174
	c-0.345-0.919-1.22-1.332-2.067-1.732c-1.067-0.504-2.075-0.98-2.188-2.432c-0.136-1.767,0.155-6.757,0.39-10.767
	c0.154-2.648,0.287-4.936,0.287-5.994c0-0.401,0.036-0.956,0.098-1.607c4.567,1.214,8.038,1.717,11.205,1.717
	c2.594,0,5.105-0.343,7.9-1.08c9.788-2.582,12.812-5.873,15.734-9.056c2.731-2.975,5.312-5.782,13.52-7.762
	c2.956-0.713,8.365-2.563,13.459-4.604c9.093-3.642,9.085-4.542,9.081-4.927C143.208,121.289,143.144,120.923,142.573,120.796z"/>
<g>
	<path fill="#FFFFFF" d="M134.979,65.898h23.414V44.664h8.191v54.281h-8.191V73.598h-23.414v25.348h-8.191V44.664h8.191V65.898z"/>
	<path fill="#FFFFFF" d="M193.315,44.664v35.121c0,4.196-0.293,7.325-0.879,9.387c-0.586,2.344-1.582,4.324-2.988,5.941
		c-2.742,3.212-6.375,4.816-10.898,4.816c-3.422,0-6.622-0.892-9.598-2.672l4.008-6.996c1.992,1.336,3.855,2.004,5.59,2.004
		c2.438,0,4.125-0.926,5.063-2.777c0.984-1.851,1.477-5.085,1.477-9.703V44.664H193.315z"/>
	<path fill="#FFFFFF" d="M200.815,71.559c0-7.641,2.801-14.203,8.402-19.688c5.578-5.484,12.281-8.227,20.109-8.227
		c7.734,0,14.367,2.766,19.898,8.297c5.555,5.532,8.332,12.176,8.332,19.934c0,7.805-2.789,14.427-8.367,19.863
		c-5.602,5.462-12.363,8.191-20.285,8.191c-7.008,0-13.301-2.426-18.879-7.277C203.886,87.286,200.815,80.255,200.815,71.559z
		 M209.077,71.664c0,6,2.016,10.934,6.047,14.801c4.008,3.867,8.637,5.801,13.887,5.801c5.695,0,10.5-1.969,14.414-5.906
		c3.914-3.984,5.871-8.836,5.871-14.555c0-5.789-1.934-10.64-5.801-14.555c-3.844-3.938-8.602-5.906-14.273-5.906
		c-5.648,0-10.418,1.969-14.309,5.906C211.022,61.141,209.077,65.946,209.077,71.664z M216.354,34.117
		c0-1.359,0.492-2.531,1.477-3.516s2.156-1.477,3.516-1.477c1.406,0,2.59,0.492,3.551,1.477c0.984,0.984,1.477,2.18,1.477,3.586
		c0,1.383-0.492,2.566-1.477,3.551c-0.961,0.984-2.133,1.477-3.516,1.477c-1.406,0-2.602-0.492-3.586-1.477
		C216.835,36.707,216.354,35.5,216.354,34.117z M232.14,34.117c0-1.359,0.492-2.531,1.477-3.516s2.168-1.477,3.551-1.477
		s2.566,0.492,3.551,1.477s1.477,2.18,1.477,3.586c0,1.383-0.492,2.566-1.477,3.551s-2.168,1.477-3.551,1.477
		c-1.406,0-2.602-0.492-3.586-1.477C232.62,36.707,232.14,35.5,232.14,34.117z"/>
	<path fill="#FFFFFF" d="M331.235,66.32l21.129-21.656h10.934l-24.539,24.574l24.68,29.707H352.47l-19.547-24.152l-1.688,1.688
		v22.465h-8.191V44.664h8.191V66.32z"/>
	<polygon fill="#FFFFFF" points="312.837,98.922 312.837,44.664 304.646,44.664 304.646,82.387 268.588,44.664 265.06,44.664 
		265.06,98.945 273.251,98.945 273.251,60.941 309.647,98.922 	"/>
</g>
</svg>
